<svg xmlns="http://www.w3.org/2000/svg" xmlns:xlink="http://www.w3.org/1999/xlink" version="1.1" x="0px" y="0px" viewBox="0 0 64 80" style="enable-background:new 0 0 64 64;" xml:space="preserve"><g><g><path d="M12,28h7.7001953c0.5527344,0,1-0.4477539,1-1s-0.4472656-1-1-1H12c-0.5527344,0-1,0.4477539-1,1S11.4472656,28,12,28z"/><path d="M34,31H12c-0.5527344,0-1,0.4477539-1,1s0.4472656,1,1,1h22c0.5527344,0,1-0.4477539,1-1S34.5527344,31,34,31z"/><path d="M12,47h7.7001953c0.5527344,0,1-0.4477539,1-1s-0.4472656-1-1-1H12c-0.5527344,0-1,0.4477539-1,1S11.4472656,47,12,47z"/><path d="M34,50H12c-0.5527344,0-1,0.4477539-1,1s0.4472656,1,1,1h22c0.5527344,0,1-0.4477539,1-1S34.5527344,50,34,50z"/><path d="M45.2929688,22.2929688c-0.390625,0.390625-0.390625,1.0234375,0,1.4140625L47.5859375,26l-2.2929688,2.2929688    c-0.390625,0.390625-0.390625,1.0234375,0,1.4140625C45.4882813,29.9023438,45.7441406,30,46,30    s0.5117188-0.0976563,0.7070313-0.2929688L49,27.4140625l2.2929688,2.2929688C51.4882813,29.9023438,51.7441406,30,52,30    s0.5117188-0.0976563,0.7070313-0.2929688c0.390625-0.390625,0.390625-1.0234375,0-1.4140625L50.4140625,26l2.2929688-2.2929688    c0.390625-0.390625,0.390625-1.0234375,0-1.4140625s-1.0234375-0.390625-1.4140625,0L49,24.5859375l-2.2929688-2.2929688    C46.3164063,21.9023438,45.6835938,21.9023438,45.2929688,22.2929688z"/><path d="M49,39c-0.6801758,0-1.3479004,0.0760498-2,0.2102051v-3.4207153C47.6531372,35.9239502,48.3204346,36,49,36    c5.5136719,0,10-4.4858398,10-10s-4.4863281-10-10-10c-0.6801758,0-1.3479004,0.0760498-2,0.2102051V12    c0-0.5522461-0.4472656-1-1-1h-9V8c0-0.5522461-0.4472656-1-1-1h-6V6c0-1.0668945-0.4160156-2.0708008-1.1728516-2.8271484    C28.0712891,2.4165039,27.0664063,2,26,2c-2.2060547,0-4,1.7944336-4,4v1h-6c-0.5527344,0-1,0.4477539-1,1v3H6    c-0.5527344,0-1,0.4477539-1,1v49c0,0.5522461,0.4472656,1,1,1h40c0.5527344,0,1-0.4477539,1-1v-2.2105103    C47.6531372,58.9239502,48.3204346,59,49,59c5.5136719,0,10-4.4858398,10-10S54.5136719,39,49,39z M57,26    c0,4.4111328-3.5888672,8-8,8c-0.9199219,0-1.8144531-0.1547852-2.6679688-0.4633789C43.1425781,32.4160156,41,29.387207,41,26    s2.1425781-6.4160156,5.3398438-7.5395508C47.1855469,18.1547852,48.0800781,18,49,18C53.4111328,18,57,21.5888672,57,26z M24,6    c0-1.1030273,0.8974609-2,2-2c0.5322266,0,1.0341797,0.2084961,1.4130859,0.5869141S28,5.4672852,28,6v1h-4V6z M17,9h6h6h6v3v3H17    v-3V9z M45,60H7V13h8v3c0,0.5522461,0.4472656,1,1,1h20c0.5527344,0,1-0.4477539,1-1v-3h8v3.8388672    c-0.006958,0.0030518-0.0130615,0.0074463-0.0200195,0.010498c-0.4161987,0.1820068-0.8129883,0.3947144-1.1946411,0.6278687    c-0.0400391,0.0244751-0.0813599,0.0466309-0.1210327,0.0716553c-0.3659668,0.230835-0.7120361,0.4866943-1.0419922,0.760437    c-0.0458984,0.0380859-0.0925293,0.074646-0.1376953,0.1134644c-0.3184814,0.2740479-0.6168213,0.5681763-0.8971558,0.8786621    c-0.0440674,0.0488281-0.0880127,0.0970459-0.1311035,0.1467285c-0.2721558,0.3134766-0.5238647,0.6430054-0.7549438,0.9875488    c-0.0371094,0.0552368-0.072876,0.1108398-0.1088257,0.1668701c-0.2250977,0.3504028-0.4296875,0.713562-0.6099243,1.0903931    c-0.0267944,0.0559692-0.0510864,0.1127319-0.0768433,0.1692505c-0.1759644,0.3859253-0.3305664,0.7821655-0.4568481,1.1901855    c-0.0154419,0.0497437-0.0275879,0.1003418-0.0421753,0.1503906c-0.123291,0.421936-0.2236938,0.8521729-0.2907715,1.2921753    c-0.0050049,0.032959-0.0070801,0.0664063-0.0117798,0.0994263C39.0386353,25.0559082,39,25.5244751,39,26    s0.0386353,0.9441528,0.104248,1.4055786c0.0046997,0.03302,0.0067749,0.0664673,0.0117798,0.0994263    c0.0671387,0.4404907,0.1676025,0.8712769,0.2910767,1.2936401c0.0144043,0.0492554,0.0263672,0.098999,0.0415039,0.1479492    c0.126709,0.409668,0.2819214,0.807373,0.4585571,1.1947021c0.0249023,0.0545044,0.0483398,0.1091309,0.0740967,0.163147    c0.1815796,0.3798828,0.3877563,0.7460938,0.6147461,1.0991211c0.0334473,0.052002,0.0666504,0.1035767,0.1010132,0.1549683    c0.2339478,0.3494873,0.4891357,0.6835327,0.7651978,1.0009766c0.0383301,0.0440674,0.0773926,0.0869751,0.1164551,0.1303711    c0.2852173,0.3167114,0.5893555,0.6164551,0.9141235,0.8952637c0.0379028,0.0325317,0.0770264,0.0632324,0.1154175,0.0952148    c0.3360596,0.2798462,0.68927,0.5405884,1.0627441,0.7756348c0.0327759,0.0206909,0.0668945,0.0389404,0.0999756,0.0592041    c0.3862915,0.2367554,0.7883301,0.4519043,1.210022,0.6359253C44.9876099,35.1540527,44.9933472,35.1582642,45,35.1611328    v4.6777344c-0.006958,0.0030518-0.0130615,0.0074463-0.0200195,0.010498    c-0.4161987,0.1820068-0.8129883,0.3947144-1.1946411,0.6278687c-0.0400391,0.0244751-0.0813599,0.0466309-0.1210327,0.0716553    c-0.3659668,0.230835-0.7120361,0.4866943-1.0419922,0.760437c-0.0458984,0.0380859-0.0925293,0.074646-0.1376953,0.1134644    c-0.3184814,0.2740479-0.6168213,0.5681763-0.8971558,0.8786621c-0.0440674,0.0488281-0.0880127,0.0970459-0.1311035,0.1467285    c-0.2721558,0.3134766-0.5238647,0.6430054-0.7549438,0.9875488c-0.0371094,0.0552368-0.072876,0.1108398-0.1088257,0.1668701    c-0.2250977,0.3504028-0.4296875,0.713562-0.6099243,1.0903931c-0.0267944,0.0559692-0.0510864,0.1127319-0.0768433,0.1692505    c-0.1759644,0.3859253-0.3305664,0.7821655-0.4568481,1.1901855c-0.0154419,0.0497437-0.0275879,0.1003418-0.0421753,0.1503906    c-0.123291,0.421936-0.2236938,0.8521729-0.2907715,1.2921753c-0.0050049,0.032959-0.0070801,0.0664063-0.0117798,0.0994263    C39.0386353,48.0559082,39,48.5244751,39,49s0.0386353,0.9441528,0.104248,1.4055786    c0.0046997,0.03302,0.0067749,0.0664673,0.0117798,0.0994263c0.0671387,0.4404907,0.1676025,0.8712769,0.2910767,1.2936401    c0.0144043,0.0492554,0.0263672,0.098999,0.0415039,0.1479492c0.126709,0.409668,0.2819214,0.807373,0.4585571,1.1947021    c0.0249023,0.0545044,0.0483398,0.1091309,0.0740967,0.163147c0.1815796,0.3798828,0.3877563,0.7460938,0.6147461,1.0991211    c0.0334473,0.052002,0.0666504,0.1035767,0.1010132,0.1549683c0.2339478,0.3494873,0.4891357,0.6835327,0.7651978,1.0009766    c0.0383301,0.0440674,0.0773926,0.0869751,0.1164551,0.1303711c0.2852173,0.3167114,0.5893555,0.6164551,0.9141235,0.8952637    c0.0379028,0.0325317,0.0770264,0.0632324,0.1154175,0.0952148c0.3360596,0.2798462,0.68927,0.5405884,1.0627441,0.7756348    c0.0327759,0.0206909,0.0668945,0.0389404,0.0999756,0.0592041c0.3862915,0.2367554,0.7883301,0.4519043,1.210022,0.6359253    C44.9876099,58.1540527,44.9933472,58.1582642,45,58.1611328V60z M49,57c-0.9199219,0-1.8144531-0.1547852-2.6679688-0.4633789    C43.1425781,55.4160156,41,52.387207,41,49s2.1425781-6.4160156,5.3398438-7.5395508C47.1855469,41.1547852,48.0800781,41,49,41    c4.4111328,0,8,3.5888672,8,8S53.4111328,57,49,57z"/><path d="M52.2314453,45.3598633l-4.2988281,5.1586914l-2.2255859-2.2255859c-0.390625-0.390625-1.0234375-0.390625-1.4140625,0    s-0.390625,1.0234375,0,1.4140625l3,3C47.4804688,52.8950195,47.7353516,53,48,53    c0.0146484,0,0.0302734-0.0004883,0.0449219-0.0009766c0.28125-0.0126953,0.5429688-0.1430664,0.7236328-0.3588867l5-6    c0.3535156-0.4243164,0.2958984-1.0546875-0.1279297-1.4082031    C53.2148438,44.8774414,52.5849609,44.9360352,52.2314453,45.3598633z"/></g></g></svg>