<svg xmlns="http://www.w3.org/2000/svg" version="1.1" viewBox="-5.0 -10.0 110.0 135.0">
 <path d="m18 13c-3.8242 0-7 3.1758-7 7v60c0 3.8242 3.1758 7 7 7h64c3.8242 0 7-3.1758 7-7v-60c0-3.8242-3.1758-7-7-7zm0 6h64c0.60547 0 1 0.39453 1 1v40.75l-10.875-10.875c-0.60547-0.60547-1.4375-0.92578-2.2891-0.875-0.85547 0.046875-1.6484 0.45703-2.1797 1.125l-9.9062 12.375-18.625-18.625c-0.64453-0.65625-1.5547-0.97656-2.4688-0.875-0.63281 0.074219-1.2227 0.34766-1.6875 0.78125l-17.969 16.406v-40.188c0-0.60547 0.39453-1 1-1zm40 6c-5.4883 0-10 4.5117-10 10s4.5117 10 10 10 10-4.5117 10-10-4.5117-10-10-10zm0 6c2.2461 0 4 1.7539 4 4s-1.7539 4-4 4-4-1.7539-4-4 1.7539-4 4-4zm-21.094 19.125 18.969 18.969c0.60156 0.60547 1.4297 0.92969 2.2852 0.89062 0.85156-0.042969 1.6445-0.44531 2.1836-1.1094l9.9062-12.406 12.75 12.75v10.781c0 0.60547-0.39453 1-1 1h-64c-0.60547 0-1-0.39453-1-1v-11.688z"/>
</svg>