<svg xmlns="http://www.w3.org/2000/svg" version="1.1" viewBox="-5.0 -10.0 110.0 135.0">
 <path d="m11.398 11.902c-4.6602 0-8.457 3.7969-8.457 8.457v59.281c0 4.6602 3.7969 8.457 8.457 8.457h77.203c4.6602 0 8.457-3.8008 8.457-8.457v-59.281c0-4.6602-3.8008-8.457-8.457-8.457zm0 2.9414h9.5625l-7.9141 13.699h-7.1602v-8.1875c0-3.082 2.4336-5.5156 5.5156-5.5156zm12.961 0h17.465l-7.9141 13.699h-17.461zm20.867 0h17.465l-7.9141 13.699h-17.461zm20.863 0h17.465l-7.9141 13.699h-17.461zm20.863 0h1.6523c3.0781 0 5.5156 2.4336 5.5156 5.5156v8.1875h-15.074zm-81.07 16.641h88.23v48.156c0 3.082-2.4336 5.5156-5.5156 5.5156l-77.199-0.003906c-3.0781 0-5.5156-2.4336-5.5156-5.5156zm36.387 10.281c-2.418 0.058594-4.668 2.0117-4.668 4.6797v23.754c0 3.5547 3.9961 5.8516 7.0703 4.0625l20.285-11.832c3.082-1.7969 3.082-6.4062 0-8.207l-20.285-11.832c-0.76953-0.44922-1.5938-0.64062-2.4023-0.62109zm-0.011719 2.8906c0.30469 0.003906 0.625 0.085938 0.93359 0.26562l20.281 11.832c1.2578 0.73438 1.2578 2.3945 0 3.1289l-20.281 11.832c-1.2344 0.71875-2.6484-0.089844-2.6484-1.5195v-23.754c0-1.0703 0.79688-1.7969 1.7148-1.7852z"/>
</svg>