<svg xmlns="http://www.w3.org/2000/svg" version="1.1" viewBox="-5.0 -10.0 110.0 135.0">
 <path d="m23.027 52.5c3.7148 0 6.7227 3.0078 6.7227 6.7227 0 3.7109-3.0078 6.7188-6.7227 6.7227h-2.2773v4.5547h-5v-18zm-2.2773 8.4453h2.2773c0.95312-0.003906 1.7227-0.77344 1.7227-1.7227 0-0.95312-0.76953-1.7227-1.7227-1.7227h-2.2773z" fill-rule="evenodd"/>
 <path d="m38.848 52.5c3.8125 0 6.9023 3.0898 6.9023 6.9023v4.1953c0 3.8125-3.0898 6.9023-6.9023 6.9023h-7.0977v-18zm-2.0977 13h2.0977c1.0508 0 1.9023-0.85156 1.9023-1.9023v-4.1953c0-1.0508-0.85156-1.9023-1.9023-1.9023h-2.0977z" fill-rule="evenodd"/>
 <path d="m59.25 57.5h-6.5v2.9844h6.5v5h-6.5v5.0156h-5v-18h11.5z"/>
 <path d="m62.543 5.0195c2.0859 0 4.1016 0.76953 5.6602 2.1602l23.711 21.199c1.8047 1.6133 2.8359 3.918 2.8359 6.3359v50.328c0 5.5078-4.4727 9.957-9.9688 9.957h-48.062c-5.4961 0-9.9688-4.4492-9.9688-9.957v-3.543h-13c-4.6953 0-8.5-3.8047-8.5-8.5v-23c0-4.6953 3.8047-8.5 8.5-8.5h13v-26.543c0-5.5078 4.4727-9.957 9.9688-9.957zm-25.824 6.9805c-1.6484 0-2.9688 1.332-2.9688 2.957v26.543h27.5c4.6953 0 8.5 3.8047 8.5 8.5v23c0 4.6953-3.8047 8.5-8.5 8.5h-27.5v3.543c0 1.625 1.3242 2.957 2.9688 2.957h48.062c1.6445 0 2.9688-1.332 2.9688-2.957v-48.543h-25c-1.9336 0-3.5-1.5664-3.5-3.5v-20.984zm-22.969 36.5c-0.82812 0-1.5 0.67188-1.5 1.5v23c0 0.82812 0.67188 1.5 1.5 1.5h47.5c0.82812 0 1.5-0.67188 1.5-1.5v-23c0-0.82812-0.67188-1.5-1.5-1.5zm52.5-19h16.418l-16.418-14.676z" fill-rule="evenodd"/>
</svg>