<svg xmlns="http://www.w3.org/2000/svg" xmlns:xlink="http://www.w3.org/1999/xlink" version="1.1" x="0px" y="0px" viewBox="0 0 100 125" style="enable-background:new 0 0 100 100;" xml:space="preserve"><path d="M38,27c0-1.1,0.9-2,2-2h22c1.1,0,2,0.9,2,2c0,1.1-0.9,2-2,2H40C38.9,29,38,28.1,38,27z M92,46v28c0,3.3-2.7,6-6,6H74v9  c0,3.3-2.7,6-6,6H14c-3.3,0-6-2.7-6-6V27c0-0.5,0.2-1,0.6-1.4l20-20C29,5.2,29.5,5,30,5h38c3.3,0,6,2.7,6,6v29h12  C89.3,40,92,42.7,92,46z M14.8,25H26c1.1,0,2-0.9,2-2V11.8L14.8,25z M70,80H24c-3.3,0-6-2.7-6-6V46c0-3.3,2.7-6,6-6h46V11  c0-1.1-0.9-2-2-2H32v14c0,3.3-2.7,6-6,6H12v60c0,1.1,0.9,2,2,2h54c1.1,0,2-0.9,2-2V80z M88,46c0-1.1-0.9-2-2-2H24c-1.1,0-2,0.9-2,2  v28c0,1.1,0.9,2,2,2h62c1.1,0,2-0.9,2-2V46z M42,58v4c0,4.4-3.6,8-8,8h-4c-1.1,0-2-0.9-2-2V52c0-1.1,0.9-2,2-2h4  C38.4,50,42,53.6,42,58z M38,58c0-2.2-1.8-4-4-4h-2v12h2c2.2,0,4-1.8,4-4V58z M62,57v6c0,3.9-3.1,7-7,7s-7-3.1-7-7v-6  c0-3.9,3.1-7,7-7S62,53.1,62,57z M58,57c0-1.7-1.3-3-3-3s-3,1.3-3,3v6c0,1.6,1.3,3,3,3s3-1.4,3-3V57z M75,54c1.2,0,2.3,0.7,2.8,1.8  c0.4,1,1.6,1.5,2.6,1c1-0.4,1.5-1.6,1-2.6C80.3,51.6,77.8,50,75,50c-3.9,0-7,3.1-7,7v6c0,3.9,3.1,7,7,7c2.8,0,5.3-1.7,6.4-4.2  c0.4-1,0-2.2-1-2.6c-1-0.5-2.2,0-2.6,1C77.3,65.3,76.2,66,75,66c-1.7,0-3-1.4-3-3v-6C72,55.3,73.3,54,75,54z"/></svg>